<svg width="2635" height="285" viewBox="0 0 2635 285" fill="none" xmlns="http://www.w3.org/2000/svg">
<g clip-path="url(#clip0_115_29)">
<path d="M361.875 15.95L283.3 269H240.775L185.475 96.1C183.958 91.9 182.558 86.7667 181.275 80.7C180.575 83.6167 179.875 86.3583 179.175 88.925C178.475 91.4917 177.717 93.8833 176.9 96.1L121.075 269H78.375L-0.0249998 15.95H39.35C43.4333 15.95 46.8167 16.9417 49.5 18.925C52.3 20.7917 54.1667 23.3583 55.1 26.625L98.15 178C99.0833 181.733 99.9583 185.817 100.775 190.25C101.708 194.567 102.642 199.117 103.575 203.9C104.508 199 105.5 194.392 106.55 190.075C107.717 185.758 108.942 181.733 110.225 178L159.925 26.625C160.858 23.9416 162.667 21.4917 165.35 19.275C168.15 17.0583 171.533 15.95 175.5 15.95H189.325C193.408 15.95 196.733 16.9417 199.3 18.925C201.867 20.9083 203.792 23.475 205.075 26.625L254.6 178C257.05 185.233 259.267 193.575 261.25 203.025C262.767 193.808 264.458 185.467 266.325 178L309.375 26.625C310.075 23.7083 311.825 21.2 314.625 19.1C317.542 17 320.983 15.95 324.95 15.95H361.875ZM477.123 232.25C485.873 232.25 493.223 231.2 499.173 229.1C505.123 227 509.848 224.2 513.348 220.7C516.965 217.2 519.532 213.117 521.048 208.45C522.682 203.783 523.498 198.825 523.498 193.575C523.498 188.092 522.623 183.192 520.873 178.875C519.123 174.442 516.382 170.708 512.648 167.675C508.915 164.525 504.073 162.133 498.123 160.5C492.29 158.867 485.232 158.05 476.948 158.05H429.523V232.25H477.123ZM429.523 52.35V125.5H466.973C483.073 125.5 495.207 122.583 503.373 116.75C511.657 110.917 515.798 101.642 515.798 88.925C515.798 75.7417 512.065 66.35 504.598 60.75C497.132 55.15 485.465 52.35 469.598 52.35H429.523ZM469.598 15.95C486.165 15.95 500.34 17.525 512.123 20.675C523.907 23.825 533.532 28.3167 540.998 34.15C548.582 39.9833 554.123 47.0417 557.623 55.325C561.123 63.6083 562.873 72.9416 562.873 83.325C562.873 89.275 561.998 94.9917 560.248 100.475C558.498 105.842 555.757 110.917 552.023 115.7C548.407 120.367 543.74 124.625 538.023 128.475C532.423 132.325 525.715 135.592 517.898 138.275C552.665 146.092 570.048 164.875 570.048 194.625C570.048 205.358 568.007 215.275 563.923 224.375C559.84 233.475 553.89 241.35 546.073 248C538.257 254.533 528.632 259.667 517.198 263.4C505.765 267.133 492.698 269 477.998 269H382.448V15.95H469.598ZM935.602 15.95L857.027 269H814.502L759.202 96.1C757.685 91.9 756.285 86.7667 755.002 80.7C754.302 83.6167 753.602 86.3583 752.902 88.925C752.202 91.4917 751.443 93.8833 750.627 96.1L694.802 269H652.102L573.702 15.95H613.077C617.16 15.95 620.543 16.9417 623.227 18.925C626.027 20.7917 627.893 23.3583 628.827 26.625L671.877 178C672.81 181.733 673.685 185.817 674.502 190.25C675.435 194.567 676.368 199.117 677.302 203.9C678.235 199 679.227 194.392 680.277 190.075C681.443 185.758 682.668 181.733 683.952 178L733.652 26.625C734.585 23.9416 736.393 21.4917 739.077 19.275C741.877 17.0583 745.26 15.95 749.227 15.95H763.052C767.135 15.95 770.46 16.9417 773.027 18.925C775.593 20.9083 777.518 23.475 778.802 26.625L828.327 178C830.777 185.233 832.993 193.575 834.977 203.025C836.493 193.808 838.185 185.467 840.052 178L883.102 26.625C883.802 23.7083 885.552 21.2 888.352 19.1C891.268 17 894.71 15.95 898.677 15.95H935.602ZM1050.85 232.25C1059.6 232.25 1066.95 231.2 1072.9 229.1C1078.85 227 1083.58 224.2 1087.08 220.7C1090.69 217.2 1093.26 213.117 1094.78 208.45C1096.41 203.783 1097.23 198.825 1097.23 193.575C1097.23 188.092 1096.35 183.192 1094.6 178.875C1092.85 174.442 1090.11 170.708 1086.38 167.675C1082.64 164.525 1077.8 162.133 1071.85 160.5C1066.02 158.867 1058.96 158.05 1050.68 158.05H1003.25V232.25H1050.85ZM1003.25 52.35V125.5H1040.7C1056.8 125.5 1068.93 122.583 1077.1 116.75C1085.38 110.917 1089.53 101.642 1089.53 88.925C1089.53 75.7417 1085.79 66.35 1078.33 60.75C1070.86 55.15 1059.19 52.35 1043.33 52.35H1003.25ZM1043.33 15.95C1059.89 15.95 1074.07 17.525 1085.85 20.675C1097.63 23.825 1107.26 28.3167 1114.73 34.15C1122.31 39.9833 1127.85 47.0417 1131.35 55.325C1134.85 63.6083 1136.6 72.9416 1136.6 83.325C1136.6 89.275 1135.73 94.9917 1133.98 100.475C1132.23 105.842 1129.48 110.917 1125.75 115.7C1122.13 120.367 1117.47 124.625 1111.75 128.475C1106.15 132.325 1099.44 135.592 1091.63 138.275C1126.39 146.092 1143.78 164.875 1143.78 194.625C1143.78 205.358 1141.73 215.275 1137.65 224.375C1133.57 233.475 1127.62 241.35 1119.8 248C1111.98 254.533 1102.36 259.667 1090.93 263.4C1079.49 267.133 1066.43 269 1051.73 269H956.175V15.95H1043.33ZM1509.33 15.95L1430.75 269H1388.23L1332.93 96.1C1331.41 91.9 1330.01 86.7667 1328.73 80.7C1328.03 83.6167 1327.33 86.3583 1326.63 88.925C1325.93 91.4917 1325.17 93.8833 1324.35 96.1L1268.53 269H1225.83L1147.43 15.95H1186.8C1190.89 15.95 1194.27 16.9417 1196.95 18.925C1199.75 20.7917 1201.62 23.3583 1202.55 26.625L1245.6 178C1246.54 181.733 1247.41 185.817 1248.23 190.25C1249.16 194.567 1250.09 199.117 1251.03 203.9C1251.96 199 1252.95 194.392 1254 190.075C1255.17 185.758 1256.39 181.733 1257.68 178L1307.38 26.625C1308.31 23.9416 1310.12 21.4917 1312.8 19.275C1315.6 17.0583 1318.99 15.95 1322.95 15.95H1336.78C1340.86 15.95 1344.19 16.9417 1346.75 18.925C1349.32 20.9083 1351.24 23.475 1352.53 26.625L1402.05 178C1404.5 185.233 1406.72 193.575 1408.7 203.025C1410.22 193.808 1411.91 185.467 1413.78 178L1456.83 26.625C1457.53 23.7083 1459.28 21.2 1462.08 19.1C1464.99 17 1468.44 15.95 1472.4 15.95H1509.33ZM1624.58 232.25C1633.33 232.25 1640.68 231.2 1646.63 229.1C1652.58 227 1657.3 224.2 1660.8 220.7C1664.42 217.2 1666.98 213.117 1668.5 208.45C1670.13 203.783 1670.95 198.825 1670.95 193.575C1670.95 188.092 1670.08 183.192 1668.33 178.875C1666.58 174.442 1663.83 170.708 1660.1 167.675C1656.37 164.525 1651.53 162.133 1645.58 160.5C1639.74 158.867 1632.68 158.05 1624.4 158.05H1576.98V232.25H1624.58ZM1576.98 52.35V125.5H1614.43C1630.53 125.5 1642.66 122.583 1650.83 116.75C1659.11 110.917 1663.25 101.642 1663.25 88.925C1663.25 75.7417 1659.52 66.35 1652.05 60.75C1644.58 55.15 1632.92 52.35 1617.05 52.35H1576.98ZM1617.05 15.95C1633.62 15.95 1647.79 17.525 1659.58 20.675C1671.36 23.825 1680.98 28.3167 1688.45 34.15C1696.03 39.9833 1701.58 47.0417 1705.08 55.325C1708.58 63.6083 1710.33 72.9416 1710.33 83.325C1710.33 89.275 1709.45 94.9917 1707.7 100.475C1705.95 105.842 1703.21 110.917 1699.48 115.7C1695.86 120.367 1691.19 124.625 1685.48 128.475C1679.88 132.325 1673.17 135.592 1665.35 138.275C1700.12 146.092 1717.5 164.875 1717.5 194.625C1717.5 205.358 1715.46 215.275 1711.38 224.375C1707.29 233.475 1701.34 241.35 1693.53 248C1685.71 254.533 1676.08 259.667 1664.65 263.4C1653.22 267.133 1640.15 269 1625.45 269H1529.9V15.95H1617.05ZM2083.05 15.95L2004.48 269H1961.95L1906.65 96.1C1905.14 91.9 1903.74 86.7667 1902.45 80.7C1901.75 83.6167 1901.05 86.3583 1900.35 88.925C1899.65 91.4917 1898.9 93.8833 1898.08 96.1L1842.25 269H1799.55L1721.15 15.95H1760.53C1764.61 15.95 1768 16.9417 1770.68 18.925C1773.48 20.7917 1775.35 23.3583 1776.28 26.625L1819.33 178C1820.26 181.733 1821.14 185.817 1821.95 190.25C1822.89 194.567 1823.82 199.117 1824.75 203.9C1825.69 199 1826.68 194.392 1827.73 190.075C1828.9 185.758 1830.12 181.733 1831.4 178L1881.1 26.625C1882.04 23.9416 1883.85 21.4917 1886.53 19.275C1889.33 17.0583 1892.71 15.95 1896.68 15.95H1910.5C1914.59 15.95 1917.91 16.9417 1920.48 18.925C1923.05 20.9083 1924.97 23.475 1926.25 26.625L1975.78 178C1978.23 185.233 1980.45 193.575 1982.43 203.025C1983.95 193.808 1985.64 185.467 1987.5 178L2030.55 26.625C2031.25 23.7083 2033 21.2 2035.8 19.1C2038.72 17 2042.16 15.95 2046.13 15.95H2083.05ZM2198.3 232.25C2207.05 232.25 2214.4 231.2 2220.35 229.1C2226.3 227 2231.03 224.2 2234.53 220.7C2238.14 217.2 2240.71 213.117 2242.23 208.45C2243.86 203.783 2244.68 198.825 2244.68 193.575C2244.68 188.092 2243.8 183.192 2242.05 178.875C2240.3 174.442 2237.56 170.708 2233.83 167.675C2230.09 164.525 2225.25 162.133 2219.3 160.5C2213.47 158.867 2206.41 158.05 2198.13 158.05H2150.7V232.25H2198.3ZM2150.7 52.35V125.5H2188.15C2204.25 125.5 2216.39 122.583 2224.55 116.75C2232.84 110.917 2236.98 101.642 2236.98 88.925C2236.98 75.7417 2233.24 66.35 2225.78 60.75C2218.31 55.15 2206.64 52.35 2190.78 52.35H2150.7ZM2190.78 15.95C2207.34 15.95 2221.52 17.525 2233.3 20.675C2245.09 23.825 2254.71 28.3167 2262.18 34.15C2269.76 39.9833 2275.3 47.0417 2278.8 55.325C2282.3 63.6083 2284.05 72.9416 2284.05 83.325C2284.05 89.275 2283.18 94.9917 2281.43 100.475C2279.68 105.842 2276.94 110.917 2273.2 115.7C2269.59 120.367 2264.92 124.625 2259.2 128.475C2253.6 132.325 2246.89 135.592 2239.08 138.275C2273.84 146.092 2291.23 164.875 2291.23 194.625C2291.23 205.358 2289.19 215.275 2285.1 224.375C2281.02 233.475 2275.07 241.35 2267.25 248C2259.44 254.533 2249.81 259.667 2238.38 263.4C2226.94 267.133 2213.88 269 2199.18 269H2103.63V15.95H2190.78ZM2656.78 15.95L2578.21 269H2535.68L2480.38 96.1C2478.86 91.9 2477.46 86.7667 2476.18 80.7C2475.48 83.6167 2474.78 86.3583 2474.08 88.925C2473.38 91.4917 2472.62 93.8833 2471.81 96.1L2415.98 269H2373.28L2294.88 15.95H2334.26C2338.34 15.95 2341.72 16.9417 2344.41 18.925C2347.21 20.7917 2349.07 23.3583 2350.01 26.625L2393.06 178C2393.99 181.733 2394.86 185.817 2395.68 190.25C2396.61 194.567 2397.55 199.117 2398.48 203.9C2399.41 199 2400.41 194.392 2401.46 190.075C2402.62 185.758 2403.85 181.733 2405.13 178L2454.83 26.625C2455.76 23.9416 2457.57 21.4917 2460.26 19.275C2463.06 17.0583 2466.44 15.95 2470.41 15.95H2484.23C2488.31 15.95 2491.64 16.9417 2494.21 18.925C2496.77 20.9083 2498.7 23.475 2499.98 26.625L2549.51 178C2551.96 185.233 2554.17 193.575 2556.16 203.025C2557.67 193.808 2559.36 185.467 2561.23 178L2604.28 26.625C2604.98 23.7083 2606.73 21.2 2609.53 19.1C2612.45 17 2615.89 15.95 2619.86 15.95H2656.78Z" fill="#1C1B1B" fill-opacity="0.05"/>
</g>
<defs>
<clipPath id="clip0_115_29">
<rect width="2635" height="285" fill="white"/>
</clipPath>
</defs>
</svg>
