<svg width="937" height="280" viewBox="0 0 937 280" fill="none" xmlns="http://www.w3.org/2000/svg">
<path d="M288.672 99.704H304.128L319.472 157.944H319.696L337.168 99.704H351.728L368.864 157.944H369.088L384.768 99.704H399.776L376.592 179H362.928L344.336 119.528H344.112L325.52 179H311.856L288.672 99.704ZM425.078 99.704H437.286L471.446 179H455.318L447.926 160.856H413.542L406.374 179H390.582L425.078 99.704ZM442.998 148.76L430.79 116.504L418.358 148.76H442.998ZM484.156 112.024H459.852V99.704H522.572V112.024H498.268V179H484.156V112.024ZM581.157 118.296C579.067 115.459 576.341 113.405 572.981 112.136C569.621 110.792 566.336 110.12 563.125 110.12C559.019 110.12 555.285 110.867 551.925 112.36C548.565 113.853 545.653 115.907 543.189 118.52C540.8 121.133 538.933 124.195 537.589 127.704C536.32 131.213 535.685 135.021 535.685 139.128C535.685 143.459 536.32 147.416 537.589 151C538.859 154.584 540.651 157.683 542.965 160.296C545.355 162.835 548.192 164.813 551.477 166.232C554.763 167.651 558.459 168.36 562.565 168.36C566.821 168.36 570.592 167.539 573.877 165.896C577.163 164.179 579.813 161.939 581.829 159.176L593.141 167.128C589.632 171.533 585.339 174.968 580.261 177.432C575.184 179.821 569.248 181.016 562.453 181.016C556.256 181.016 550.544 180.008 545.317 177.992C540.165 175.901 535.723 173.027 531.989 169.368C528.256 165.635 525.344 161.229 523.253 156.152C521.163 151 520.117 145.325 520.117 139.128C520.117 132.781 521.2 127.069 523.365 121.992C525.605 116.84 528.629 112.472 532.437 108.888C536.32 105.304 540.875 102.541 546.101 100.6C551.328 98.6587 557.003 97.688 563.125 97.688C565.664 97.688 568.315 97.9493 571.077 98.472C573.84 98.92 576.491 99.6667 579.029 100.712C581.568 101.683 583.957 102.915 586.197 104.408C588.437 105.901 590.341 107.693 591.909 109.784L581.157 118.296ZM597.43 99.704H611.542V131.736H648.614V99.704H662.726V179H648.614V143.832H611.542V179H597.43V99.704ZM675.747 99.704H706.659C709.645 99.704 712.595 100.077 715.507 100.824C718.419 101.496 720.995 102.653 723.235 104.296C725.549 105.864 727.416 107.917 728.835 110.456C730.253 112.995 730.963 116.056 730.963 119.64C730.963 124.12 729.693 127.816 727.155 130.728C724.616 133.64 721.293 135.731 717.187 137V137.224C722.189 137.896 726.296 139.837 729.507 143.048C732.717 146.259 734.323 150.552 734.323 155.928C734.323 160.259 733.464 163.917 731.747 166.904C730.029 169.816 727.752 172.168 724.915 173.96C722.152 175.752 718.941 177.059 715.283 177.88C711.699 178.627 708.04 179 704.307 179H675.747V99.704ZM689.859 131.96H702.403C707.107 131.96 710.691 131.027 713.155 129.16C715.619 127.293 716.851 124.643 716.851 121.208C716.851 117.624 715.581 115.085 713.043 113.592C710.504 112.099 706.547 111.352 701.171 111.352H689.859V131.96ZM689.859 167.128H702.515C704.307 167.128 706.248 167.016 708.339 166.792C710.429 166.493 712.333 165.933 714.051 165.112C715.843 164.291 717.299 163.096 718.419 161.528C719.613 159.96 720.211 157.869 720.211 155.256C720.211 151.075 718.792 148.163 715.955 146.52C713.117 144.877 708.824 144.056 703.075 144.056H689.859V167.128ZM806.95 149.88C806.95 154.659 806.129 158.989 804.486 162.872C802.844 166.68 800.604 169.928 797.766 172.616C794.929 175.304 791.569 177.395 787.686 178.888C783.804 180.307 779.585 181.016 775.03 181.016C770.476 181.016 766.257 180.307 762.374 178.888C758.492 177.395 755.094 175.304 752.182 172.616C749.345 169.928 747.105 166.68 745.462 162.872C743.894 158.989 743.11 154.659 743.11 149.88V99.704H757.222V149.32C757.222 151.635 757.521 153.949 758.118 156.264C758.716 158.504 759.686 160.52 761.03 162.312C762.449 164.104 764.278 165.56 766.518 166.68C768.833 167.8 771.67 168.36 775.03 168.36C778.39 168.36 781.19 167.8 783.43 166.68C785.745 165.56 787.574 164.104 788.918 162.312C790.337 160.52 791.345 158.504 791.942 156.264C792.54 153.949 792.838 151.635 792.838 149.32V99.704H806.95V149.88ZM819.255 99.704H847.367C852.519 99.704 857.709 100.376 862.935 101.72C868.162 103.064 872.866 105.304 877.047 108.44C881.229 111.501 884.626 115.571 887.239 120.648C889.853 125.651 891.159 131.885 891.159 139.352C891.159 146.296 889.853 152.269 887.239 157.272C884.626 162.275 881.229 166.381 877.047 169.592C872.866 172.803 868.162 175.192 862.935 176.76C857.709 178.253 852.519 179 847.367 179H819.255V99.704ZM845.127 166.68C848.786 166.68 852.445 166.269 856.103 165.448C859.762 164.552 863.047 163.096 865.959 161.08C868.946 158.989 871.373 156.189 873.239 152.68C875.106 149.171 876.039 144.728 876.039 139.352C876.039 133.677 875.106 129.048 873.239 125.464C871.373 121.88 868.946 119.08 865.959 117.064C863.047 115.048 859.762 113.667 856.103 112.92C852.445 112.173 848.786 111.8 845.127 111.8H833.367V166.68H845.127Z" fill="#1C1B1B"/>
<path fill-rule="evenodd" clip-rule="evenodd" d="M67.7843 40H212.216C227.561 40 240 52.4395 240 67.7843V212.216C240 227.561 227.561 240 212.216 240H67.7843C52.4395 240 40 227.561 40 212.216V67.7843C40 52.4395 52.4395 40 67.7843 40ZM152.946 126.961H172.42L172.43 126.951C186.016 126.951 189.134 120.552 189.134 113.989C189.134 107.426 184.523 101.058 171.122 101.058H130.917L114.541 80.6951H168.27C190.8 80.6951 211.224 89.333 211.224 112.221C211.224 130.549 197.127 136.274 197.127 136.274C211.899 142.182 218.584 156.995 218.584 168.72C218.584 180.445 211.582 201.349 182.039 201.349H154.122L124.355 164.518L94.5872 201.349H71.0327V80.6951L94.6996 80.7155V166L112.711 143.746H135.599L165.99 180.945L177.725 180.925C189.195 180.925 195.328 172.921 195.328 164.59C195.328 156.259 188.04 148.418 177.511 148.418H170.519L152.946 126.961Z" fill="#1C1B1B"/>
</svg>
