<svg width="689" height="415" viewBox="0 0 689 415" fill="none" xmlns="http://www.w3.org/2000/svg">
<path d="M40.672 295.704H56.128L71.472 353.944H71.696L89.168 295.704H103.728L120.864 353.944H121.088L136.768 295.704H151.776L128.592 375H114.928L96.336 315.528H96.112L77.52 375H63.856L40.672 295.704ZM177.078 295.704H189.286L223.446 375H207.318L199.926 356.856H165.542L158.374 375H142.582L177.078 295.704ZM194.998 344.76L182.79 312.504L170.358 344.76H194.998ZM236.156 308.024H211.852V295.704H274.572V308.024H250.268V375H236.156V308.024ZM333.157 314.296C331.067 311.459 328.341 309.405 324.981 308.136C321.621 306.792 318.336 306.12 315.125 306.12C311.019 306.12 307.285 306.867 303.925 308.36C300.565 309.853 297.653 311.907 295.189 314.52C292.8 317.133 290.933 320.195 289.589 323.704C288.32 327.213 287.685 331.021 287.685 335.128C287.685 339.459 288.32 343.416 289.589 347C290.859 350.584 292.651 353.683 294.965 356.296C297.355 358.835 300.192 360.813 303.477 362.232C306.763 363.651 310.459 364.36 314.565 364.36C318.821 364.36 322.592 363.539 325.877 361.896C329.163 360.179 331.813 357.939 333.829 355.176L345.141 363.128C341.632 367.533 337.339 370.968 332.261 373.432C327.184 375.821 321.248 377.016 314.453 377.016C308.256 377.016 302.544 376.008 297.317 373.992C292.165 371.901 287.723 369.027 283.989 365.368C280.256 361.635 277.344 357.229 275.253 352.152C273.163 347 272.117 341.325 272.117 335.128C272.117 328.781 273.2 323.069 275.365 317.992C277.605 312.84 280.629 308.472 284.437 304.888C288.32 301.304 292.875 298.541 298.101 296.6C303.328 294.659 309.003 293.688 315.125 293.688C317.664 293.688 320.315 293.949 323.077 294.472C325.84 294.92 328.491 295.667 331.029 296.712C333.568 297.683 335.957 298.915 338.197 300.408C340.437 301.901 342.341 303.693 343.909 305.784L333.157 314.296ZM349.43 295.704H363.542V327.736H400.614V295.704H414.726V375H400.614V339.832H363.542V375H349.43V295.704ZM427.747 295.704H458.659C461.645 295.704 464.595 296.077 467.507 296.824C470.419 297.496 472.995 298.653 475.235 300.296C477.549 301.864 479.416 303.917 480.835 306.456C482.253 308.995 482.963 312.056 482.963 315.64C482.963 320.12 481.693 323.816 479.155 326.728C476.616 329.64 473.293 331.731 469.187 333V333.224C474.189 333.896 478.296 335.837 481.507 339.048C484.717 342.259 486.323 346.552 486.323 351.928C486.323 356.259 485.464 359.917 483.747 362.904C482.029 365.816 479.752 368.168 476.915 369.96C474.152 371.752 470.941 373.059 467.283 373.88C463.699 374.627 460.04 375 456.307 375H427.747V295.704ZM441.859 327.96H454.403C459.107 327.96 462.691 327.027 465.155 325.16C467.619 323.293 468.851 320.643 468.851 317.208C468.851 313.624 467.581 311.085 465.043 309.592C462.504 308.099 458.547 307.352 453.171 307.352H441.859V327.96ZM441.859 363.128H454.515C456.307 363.128 458.248 363.016 460.339 362.792C462.429 362.493 464.333 361.933 466.051 361.112C467.843 360.291 469.299 359.096 470.419 357.528C471.613 355.96 472.211 353.869 472.211 351.256C472.211 347.075 470.792 344.163 467.955 342.52C465.117 340.877 460.824 340.056 455.075 340.056H441.859V363.128ZM558.95 345.88C558.95 350.659 558.129 354.989 556.486 358.872C554.844 362.68 552.604 365.928 549.766 368.616C546.929 371.304 543.569 373.395 539.686 374.888C535.804 376.307 531.585 377.016 527.03 377.016C522.476 377.016 518.257 376.307 514.374 374.888C510.492 373.395 507.094 371.304 504.182 368.616C501.345 365.928 499.105 362.68 497.462 358.872C495.894 354.989 495.11 350.659 495.11 345.88V295.704H509.222V345.32C509.222 347.635 509.521 349.949 510.118 352.264C510.716 354.504 511.686 356.52 513.03 358.312C514.449 360.104 516.278 361.56 518.518 362.68C520.833 363.8 523.67 364.36 527.03 364.36C530.39 364.36 533.19 363.8 535.43 362.68C537.745 361.56 539.574 360.104 540.918 358.312C542.337 356.52 543.345 354.504 543.942 352.264C544.54 349.949 544.838 347.635 544.838 345.32V295.704H558.95V345.88ZM571.255 295.704H599.367C604.519 295.704 609.709 296.376 614.935 297.72C620.162 299.064 624.866 301.304 629.047 304.44C633.229 307.501 636.626 311.571 639.239 316.648C641.853 321.651 643.159 327.885 643.159 335.352C643.159 342.296 641.853 348.269 639.239 353.272C636.626 358.275 633.229 362.381 629.047 365.592C624.866 368.803 620.162 371.192 614.935 372.76C609.709 374.253 604.519 375 599.367 375H571.255V295.704ZM597.127 362.68C600.786 362.68 604.445 362.269 608.103 361.448C611.762 360.552 615.047 359.096 617.959 357.08C620.946 354.989 623.373 352.189 625.239 348.68C627.106 345.171 628.039 340.728 628.039 335.352C628.039 329.677 627.106 325.048 625.239 321.464C623.373 317.88 620.946 315.08 617.959 313.064C615.047 311.048 611.762 309.667 608.103 308.92C604.445 308.173 600.786 307.8 597.127 307.8H585.367V362.68H597.127Z" fill="#1C1B1B"/>
<path fill-rule="evenodd" clip-rule="evenodd" d="M261.784 40H406.216C421.561 40 434 52.4395 434 67.7843V212.216C434 227.561 421.561 240 406.216 240H261.784C246.439 240 234 227.561 234 212.216V67.7843C234 52.4395 246.439 40 261.784 40ZM346.946 126.961H366.42L366.43 126.951C380.016 126.951 383.134 120.552 383.134 113.989C383.134 107.426 378.523 101.058 365.122 101.058H324.917L308.541 80.6951H362.27C384.8 80.6951 405.224 89.333 405.224 112.221C405.224 130.549 391.127 136.274 391.127 136.274C405.899 142.182 412.584 156.995 412.584 168.72C412.584 180.445 405.582 201.349 376.039 201.349H348.122L318.355 164.518L288.587 201.349H265.033V80.6951L288.7 80.7155V166L306.711 143.746H329.599L359.99 180.945L371.725 180.925C383.195 180.925 389.328 172.921 389.328 164.59C389.328 156.259 382.04 148.418 371.511 148.418H364.519L346.946 126.961Z" fill="#1C1B1B"/>
</svg>
